<svg width="24" height="24" viewBox="0 0 24 24" fill="none" xmlns="http://www.w3.org/2000/svg">
<mask id="mask0_174_1258" style="mask-type:alpha" maskUnits="userSpaceOnUse" x="0" y="0" width="24" height="24">
<rect width="24" height="24" rx="1" fill="#515151"/>
</mask>
<g mask="url(#mask0_174_1258)">
<path d="M6 19C5.16667 19 4.45833 18.7083 3.875 18.125C3.5366 17.7866 3.29636 17.4061 3.15427 16.9836C2.97823 16.4601 2.55228 16 2 16C1.44772 16 1 15.5523 1 15V7C1 6.45 1.19583 5.97917 1.5875 5.5875C1.97917 5.19583 2.45 5 3 5H16.5858C16.851 5 17.1054 5.10536 17.2929 5.29289L22.7071 10.7071C22.8946 10.8946 23 11.149 23 11.4142V15C23 15.5523 22.5523 16 22 16C21.4477 16 21.0218 16.4601 20.8457 16.9836C20.7036 17.4061 20.4634 17.7866 20.125 18.125C19.5417 18.7083 18.8333 19 18 19C17.1667 19 16.4583 18.7083 15.875 18.125C15.5366 17.7866 15.2964 17.4061 15.1543 16.9836C14.9782 16.4601 14.5523 16 14 16H10C9.44772 16 9.02177 16.4601 8.84573 16.9836C8.70364 17.4061 8.4634 17.7866 8.125 18.125C7.54167 18.7083 6.83333 19 6 19ZM15 9C15 9.55228 15.4477 10 16 10H16.5858C17.4767 10 17.9229 8.92286 17.2929 8.29289L16.2071 7.20711C16.0745 7.0745 15.8946 7 15.7071 7C15.3166 7 15 7.31658 15 7.70711V9ZM9 9C9 9.55228 9.44771 10 10 10H12C12.5523 10 13 9.55228 13 9V8C13 7.44772 12.5523 7 12 7H10C9.44771 7 9 7.44772 9 8V9ZM3 9C3 9.55228 3.44772 10 4 10H6C6.55228 10 7 9.55228 7 9V8C7 7.44772 6.55228 7 6 7H4C3.44772 7 3 7.44772 3 8V9ZM6 17.25C6.35 17.25 6.64583 17.1292 6.8875 16.8875C7.12917 16.6458 7.25 16.35 7.25 16C7.25 15.65 7.12917 15.3542 6.8875 15.1125C6.64583 14.8708 6.35 14.75 6 14.75C5.65 14.75 5.35417 14.8708 5.1125 15.1125C4.87083 15.3542 4.75 15.65 4.75 16C4.75 16.35 4.87083 16.6458 5.1125 16.8875C5.35417 17.1292 5.65 17.25 6 17.25ZM18 17.25C18.35 17.25 18.6458 17.1292 18.8875 16.8875C19.1292 16.6458 19.25 16.35 19.25 16C19.25 15.65 19.1292 15.3542 18.8875 15.1125C18.6458 14.8708 18.35 14.75 18 14.75C17.65 14.75 17.3542 14.8708 17.1125 15.1125C16.8708 15.3542 16.75 15.65 16.75 16C16.75 16.35 16.8708 16.6458 17.1125 16.8875C17.3542 17.1292 17.65 17.25 18 17.25ZM3 13.441C3 13.7497 3.25029 14 3.55903 14C3.71284 14 3.8583 13.9349 3.97122 13.8305C4.2122 13.6076 4.48012 13.4224 4.775 13.275C5.14167 13.0917 5.55 13 6 13C6.45 13 6.85833 13.0917 7.225 13.275C7.46279 13.3939 7.68306 13.5373 7.8858 13.7053C8.09767 13.8808 8.35592 14 8.63105 14H15.369C15.6441 14 15.9023 13.8808 16.1142 13.7053C16.3169 13.5373 16.5372 13.3939 16.775 13.275C17.1417 13.0917 17.55 13 18 13C18.45 13 18.8583 13.0917 19.225 13.275C19.5199 13.4224 19.7878 13.6076 20.0288 13.8305C20.1417 13.9349 20.2872 14 20.441 14C20.7497 14 21 13.7497 21 13.441V13C21 12.4477 20.5523 12 20 12H4C3.44772 12 3 12.4477 3 13V13.441Z" fill="#515151"/>
</g>
</svg>
