<svg width="16" height="20" viewBox="0 0 16 20" fill="none" xmlns="http://www.w3.org/2000/svg">
<path d="M8 5C6.9 5 5.95833 5.39167 5.175 6.175C4.39167 6.95833 4 7.9 4 9C4 10.1 4.39167 11.0417 5.175 11.825C5.95833 12.6083 6.9 13 8 13C9.1 13 10.0417 12.6083 10.825 11.825C11.6083 11.0417 12 10.1 12 9C12 7.9 11.6083 6.95833 10.825 6.175C10.0417 5.39167 9.1 5 8 5ZM8 11C7.45 11 6.97917 10.8042 6.5875 10.4125C6.19583 10.0208 6 9.55 6 9C6 8.45 6.19583 7.97917 6.5875 7.5875C6.97917 7.19583 7.45 7 8 7C8.55 7 9.02083 7.19583 9.4125 7.5875C9.80417 7.97917 10 8.45 10 9C10 9.55 9.80417 10.0208 9.4125 10.4125C9.02083 10.8042 8.55 11 8 11ZM12 15C12.2833 15 12.5208 14.9042 12.7125 14.7125C12.9042 14.5208 13 14.2833 13 14C13 13.7167 12.9042 13.4792 12.7125 13.2875C12.5208 13.0958 12.2833 13 12 13C11.7167 13 11.4792 13.0958 11.2875 13.2875C11.0958 13.4792 11 13.7167 11 14C11 14.2833 11.0958 14.5208 11.2875 14.7125C11.4792 14.9042 11.7167 15 12 15ZM0 20V5C0 3.61667 0.4875 2.4375 1.4625 1.4625C2.4375 0.4875 3.61667 0 5 0H11C12.3833 0 13.5625 0.4875 14.5375 1.4625C15.5125 2.4375 16 3.61667 16 5V20H0ZM2 16H14V5C14 4.16667 13.7083 3.45833 13.125 2.875C12.5417 2.29167 11.8333 2 11 2H5C4.16667 2 3.45833 2.29167 2.875 2.875C2.29167 3.45833 2 4.16667 2 5V16Z" fill="#515151"/>
</svg>
