<svg width="20" height="19" viewBox="0 0 20 19" fill="none" xmlns="http://www.w3.org/2000/svg">
<path d="M2.95 14.1C2 13.15 1.27083 12.0708 0.7625 10.8625C0.254167 9.65417 0 8.38333 0 7.05C0 5.71667 0.254167 4.44583 0.7625 3.2375C1.27083 2.02917 2 0.95 2.95 0L4.15 1.2C3.36667 1.98333 2.7625 2.87917 2.3375 3.8875C1.9125 4.89583 1.7 5.95 1.7 7.05C1.7 8.15 1.9125 9.20417 2.3375 10.2125C2.7625 11.2208 3.36667 12.1167 4.15 12.9L2.95 14.1ZM5.25 11.8C4.61667 11.1667 4.13333 10.4417 3.8 9.625C3.46667 8.80833 3.3 7.95 3.3 7.05C3.3 6.15 3.46667 5.29167 3.8 4.475C4.13333 3.65833 4.61667 2.93333 5.25 2.3L6.45 3.5C5.96667 3.98333 5.60417 4.52917 5.3625 5.1375C5.12083 5.74583 5 6.38333 5 7.05C5 7.71667 5.12083 8.35417 5.3625 8.9625C5.60417 9.57083 5.96667 10.1167 6.45 10.6L5.25 11.8ZM9 18.05V9.35C8.55 9.15 8.1875 8.84167 7.9125 8.425C7.6375 8.00833 7.5 7.55 7.5 7.05C7.5 6.35 7.74167 5.75833 8.225 5.275C8.70833 4.79167 9.3 4.55 10 4.55C10.7 4.55 11.2917 4.79167 11.775 5.275C12.2583 5.75833 12.5 6.35 12.5 7.05C12.5 7.55 12.3625 8.00833 12.0875 8.425C11.8125 8.84167 11.45 9.15 11 9.35V18.05H9ZM14.75 11.8L13.55 10.6C14.0333 10.1167 14.3958 9.57083 14.6375 8.9625C14.8792 8.35417 15 7.71667 15 7.05C15 6.38333 14.8792 5.74583 14.6375 5.1375C14.3958 4.52917 14.0333 3.98333 13.55 3.5L14.75 2.3C15.3833 2.93333 15.8667 3.65833 16.2 4.475C16.5333 5.29167 16.7 6.15 16.7 7.05C16.7 7.95 16.5333 8.80833 16.2 9.625C15.8667 10.4417 15.3833 11.1667 14.75 11.8ZM17.05 14.1L15.85 12.9C16.6333 12.1167 17.2375 11.2208 17.6625 10.2125C18.0875 9.20417 18.3 8.15 18.3 7.05C18.3 5.95 18.0875 4.89583 17.6625 3.8875C17.2375 2.87917 16.6333 1.98333 15.85 1.2L17.05 0C18 0.95 18.7292 2.02917 19.2375 3.2375C19.7458 4.44583 20 5.71667 20 7.05C20 8.38333 19.7458 9.65417 19.2375 10.8625C18.7292 12.0708 18 13.15 17.05 14.1Z" fill="#515151"/>
</svg>
